<?xml version="1.0" encoding="utf-8"?>
<!-- Generator: Adobe Illustrator 22.0.0, SVG Export Plug-In . SVG Version: 6.00 Build 0)  -->
<svg version="1.1" id="Layer_2" xmlns="http://www.w3.org/2000/svg" xmlns:xlink="http://www.w3.org/1999/xlink" x="0px" y="0px"
	 viewBox="0 0 475.5 471.9" style="enable-background:new 0 0 475.5 471.9;" xml:space="preserve">
<style type="text/css">
	.st0{fill:url(#SVGID_1_);}
	.st1{fill:url(#SVGID_2_);}
	.st2{fill:url(#SVGID_3_);}
	.st3{fill:url(#SVGID_4_);}
	.st4{fill:url(#SVGID_5_);}
</style>
<g>
	<linearGradient id="SVGID_1_" gradientUnits="userSpaceOnUse" x1="-127.1073" y1="346.333" x2="355.8686" y2="-129.1432">
		<stop  offset="0" style="stop-color:#90EE90"/>
		<stop  offset="0.1293" style="stop-color:#87E78F"/>
		<stop  offset="0.3444" style="stop-color:#6DD38C"/>
		<stop  offset="0.6187" style="stop-color:#44B488"/>
		<stop  offset="0.9384" style="stop-color:#0B8881"/>
		<stop  offset="0.9944" style="stop-color:#008080"/>
	</linearGradient>
	<path class="st0" d="M18.2,205.1c13.9,12.7,31.5,13.1,42,13.3c10.3,0.2,39.3-0.9,63.3-22c22.2-19.5,25.2-43.4,31.3-91.3
		c2.5-19.3,2.4-36-8-45.3c-3.1-2.8-6.3-4.1-9.3-5.3c-3.7-1.5-18.1-6.7-46,2c-28.3,8.8-46.6,24.5-51.3,28.7c-9.3,8.3-24,21.4-32.7,44
		c-3.4,9-11,28.9-4,51.3C5.2,185.9,8.6,196.4,18.2,205.1z"/>
	<linearGradient id="SVGID_2_" gradientUnits="userSpaceOnUse" x1="-70.995" y1="403.3303" x2="411.9808" y2="-72.1459">
		<stop  offset="0" style="stop-color:#90EE90"/>
		<stop  offset="0.1293" style="stop-color:#87E78F"/>
		<stop  offset="0.3444" style="stop-color:#6DD38C"/>
		<stop  offset="0.6187" style="stop-color:#44B488"/>
		<stop  offset="0.9384" style="stop-color:#0B8881"/>
		<stop  offset="0.9944" style="stop-color:#008080"/>
	</linearGradient>
	<path class="st1" d="M184.2,172.5c3.6,3.4,11.2,10.6,23.3,14c22,6.2,41-4.7,46.7-8c15-8.7,22.5-20.3,31.3-34.7
		c21.9-35.4,15.5-53,29.3-108c0.6-2.5,2-8,0-14c-4.9-14.5-25.3-19.2-28.7-20c-21.6-5-40.2,4.6-52,10.7c-33.1,17-49,44.4-54,53.3
		c-8,14.2-19.1,33.8-16.7,60C164.2,133.3,166.6,155.6,184.2,172.5z"/>
	<linearGradient id="SVGID_3_" gradientUnits="userSpaceOnUse" x1="20.0603" y1="495.8218" x2="503.0362" y2="20.3456">
		<stop  offset="0" style="stop-color:#90EE90"/>
		<stop  offset="0.1293" style="stop-color:#87E78F"/>
		<stop  offset="0.3444" style="stop-color:#6DD38C"/>
		<stop  offset="0.6187" style="stop-color:#44B488"/>
		<stop  offset="0.9384" style="stop-color:#0B8881"/>
		<stop  offset="0.9944" style="stop-color:#008080"/>
	</linearGradient>
	<path class="st2" d="M284.2,159.1c-7.9,18.5-14.6,34-8.7,51.3c6.1,17.8,21.7,26.5,26.7,29.3c21.2,11.9,42.3,7.3,48,6
		c9.7-2.3,17.4-6.3,24-10.7c24.7-16.3,73-61.9,66.7-116c-1-8.2-3.3-28.2-18-37.3c-10.2-6.3-21.3-4.4-37.3-1.3
		c-15.7,3-43,8.1-68.7,31.3C297,129.7,288.5,149,284.2,159.1z"/>
	<linearGradient id="SVGID_4_" gradientUnits="userSpaceOnUse" x1="102.5659" y1="579.6287" x2="585.5417" y2="104.1525">
		<stop  offset="0" style="stop-color:#90EE90"/>
		<stop  offset="0.1293" style="stop-color:#87E78F"/>
		<stop  offset="0.3444" style="stop-color:#6DD38C"/>
		<stop  offset="0.6187" style="stop-color:#44B488"/>
		<stop  offset="0.9384" style="stop-color:#0B8881"/>
		<stop  offset="0.9944" style="stop-color:#008080"/>
	</linearGradient>
	<path class="st3" d="M471.5,257.1c-7.2-12.6-24.5-15.4-36-17.3c-14.9-2.5-22.2,0.7-80,13.3c-15.8,3.5-17.3,3.7-21.3,5.3
		c-3.7,1.5-35.5,15.2-42.7,44.7c-2.3,9.4,0.3,20.1,5.3,41.3c7,29.5,10.5,44.2,21.3,52.7c16.8,13.2,40.6,7.9,48,6.7
		c34.5-5.9,53.5-34.5,78-71.3C463.9,302.8,482,275.6,471.5,257.1z"/>
	<linearGradient id="SVGID_5_" gradientUnits="userSpaceOnUse" x1="10.6207" y1="486.2333" x2="493.5965" y2="10.7571">
		<stop  offset="0" style="stop-color:#90EE90"/>
		<stop  offset="0.1293" style="stop-color:#87E78F"/>
		<stop  offset="0.3444" style="stop-color:#6DD38C"/>
		<stop  offset="0.6187" style="stop-color:#44B488"/>
		<stop  offset="0.9384" style="stop-color:#0B8881"/>
		<stop  offset="0.9944" style="stop-color:#008080"/>
	</linearGradient>
	<path class="st4" d="M280.2,333.1c-3.2-25.4,3.5-27.5,1.3-68.7c-1.3-25.7-4.4-34-8.7-40.7c-10.3-16.3-26.8-22.6-34-25.3
		c-23.3-8.7-43.9-4.3-77.3,3.3c-34.2,7.8-28.8,11.5-67.3,20.7c-24,5.7-37.9,7.1-58,18c-21,11.4-27,21.3-29.3,26
		c-2.7,5.4-7.1,16.9-3.3,37.3c11.3,61.6,65.3,108,65.3,108c54,46.4,138,77.5,188,52c7.3-3.7,26.5-13.5,34.7-34
		c1.1-2.8,4.8-12.9,2-39.3C290.2,359.3,283.3,357.9,280.2,333.1z"/>
</g>
</svg>
