<?xml version="1.0" encoding="utf-8"?>
<!-- Generator: Adobe Illustrator 22.0.0, SVG Export Plug-In . SVG Version: 6.00 Build 0)  -->
<svg version="1.1" id="Layer_2" xmlns="http://www.w3.org/2000/svg" xmlns:xlink="http://www.w3.org/1999/xlink" x="0px" y="0px"
	 viewBox="0 0 475.5 471.9" style="enable-background:new 0 0 475.5 471.9;" xml:space="preserve">
<style type="text/css">
	.st0{fill:#FFFFFF;}
</style>
<path class="st0" d="M3.5,180.5c-7-22.5,0.6-42.4,4-51.3c8.6-22.6,23.3-35.7,32.7-44c4.7-4.2,23-19.9,51.3-28.7
	c27.9-8.7,42.3-3.5,46-2c3.1,1.2,6.2,2.5,9.3,5.3c10.4,9.3,10.5,26,8,45.3c-6.1,47.9-9.2,71.9-31.3,91.3c-24,21.1-53.1,22.2-63.3,22
	c-10.5-0.2-28.1-0.6-42-13.3C8.6,196.4,5.2,185.9,3.5,180.5z"/>
<path class="st0" d="M184.2,172.5c-17.6-16.9-20-39.2-20.7-46.7c-2.4-26.2,8.6-45.8,16.7-60c5-8.9,20.9-36.3,54-53.3
	c11.8-6.1,30.4-15.7,52-10.7c3.4,0.8,23.8,5.5,28.7,20c2,6,0.6,11.5,0,14c-13.8,55-7.4,72.6-29.3,108c-8.9,14.3-16.3,26-31.3,34.7
	c-5.6,3.3-24.7,14.2-46.7,8C195.4,183,187.8,175.9,184.2,172.5z"/>
<path class="st0" d="M275.5,210.5c-5.9-17.3,0.8-32.9,8.7-51.3c4.3-10.1,12.8-29.4,32.7-47.3c25.7-23.2,53-28.4,68.7-31.3
	c16-3,27.2-5,37.3,1.3c14.7,9.1,17,29.1,18,37.3c6.3,54.1-42,99.7-66.7,116c-6.6,4.4-14.3,8.4-24,10.7c-5.7,1.3-26.8,5.9-48-6
	C297.2,237,281.6,228.2,275.5,210.5z"/>
<path class="st0" d="M291.5,303.1c7.1-29.4,39-43.1,42.7-44.7c4-1.6,5.5-1.9,21.3-5.3c57.8-12.7,65.1-15.8,80-13.3
	c11.5,1.9,28.8,4.7,36,17.3c10.5,18.4-7.6,45.7-27.3,75.3c-24.5,36.8-43.5,65.4-78,71.3c-7.4,1.3-31.2,6.6-48-6.7
	c-10.8-8.5-14.3-23.2-21.3-52.7C291.8,323.2,289.2,312.6,291.5,303.1z"/>
<path class="st0" d="M68.8,411.8c0,0-54-46.4-65.3-108c-3.8-20.5,0.6-31.9,3.3-37.3c2.3-4.7,8.3-14.6,29.3-26
	c20.1-10.9,34-12.3,58-18c38.5-9.2,33.1-12.9,67.3-20.7c33.4-7.6,54-12,77.3-3.3c7.2,2.7,23.7,9.1,34,25.3c4.2,6.7,7.3,15,8.7,40.7
	c2.2,41.2-4.5,43.3-1.3,68.7c3.1,24.8,10,26.2,13.3,57.3c2.8,26.4-0.9,36.5-2,39.3c-8.1,20.5-27.4,30.3-34.7,34
	C206.9,489.3,122.8,458.2,68.8,411.8z"/>
</svg>
